<?xml version="1.0" encoding="UTF-8" standalone="no"?>
<svg
   width="185mm"
   height="335mm"
   viewBox="0 0 185 335"
   version="1.1"
   xmlns="http://www.w3.org/2000/svg">
  <defs id="defs1" />
  <g id="layer1">
    <!-- Abdominals / Core -->
    <path
       style="fill:#ff0000;fill-opacity:0.5;stroke:#000000;stroke-width:0.5;stroke-opacity:1"
       d="M 72,120 C 77,118 82,117 88,117 C 92,117 97,118 102,120 C 107,125 110,132 112,140 C 113,150 113,160 112,170 C 110,178 107,185 102,190 C 97,192 92,193 88,193 C 83,193 78,192 73,190 C 68,185 65,178 63,170 C 62,160 62,150 63,140 C 65,132 68,125 72,120 Z"
       id="core" />
  </g>
</svg>
