<?xml version="1.0" encoding="UTF-8" standalone="no"?>
<svg
   width="165mm"
   height="331mm"
   viewBox="0 0 165 331"
   version="1.1"
   xmlns="http://www.w3.org/2000/svg">
  <!-- Shoulders outline (deltoids) -->
  <path
     d="M 45 60 C 52 50 60 45 70 45 C 75 45 80 48 82.5 52 C 85 48 90 45 95 45 C 105 45 113 50 120 60 L 120 65 C 122 70 122 75 120 80 C 118 85 115 90 110 92 L 95 95 L 82.5 95 L 70 95 L 55 92 C 50 90 47 85 45 80 C 43 75 43 70 45 65 L 45 60 Z"
     fill="none"
     stroke="#000000"
     stroke-width="2.5"
     stroke-opacity="1"
     opacity="0.85" />
</svg>
