<?xml version="1.0" encoding="UTF-8" standalone="no"?>
<svg
   width="165mm"
   height="331mm"
   viewBox="0 0 165 331"
   version="1.1"
   xmlns="http://www.w3.org/2000/svg">
  <!-- Back muscles outline (latissimus dorsi, trapezius, erector spinae) -->
  <path
     d="M 50 65 C 60 55 70 52 82.5 52 C 95 52 105 55 115 65 L 115 70 C 120 80 122 95 122 115 C 122 140 118 165 115 185 C 112 195 105 200 95 202 C 88 203 77 203 70 202 C 60 200 53 195 50 185 C 47 165 43 140 43 115 C 43 95 45 80 50 70 L 50 65 Z"
     fill="none"
     stroke="#000000"
     stroke-width="2.5"
     stroke-opacity="1"
     opacity="0.85" />
</svg>
