<?xml version="1.0" encoding="UTF-8" standalone="no"?>
<svg
   width="165mm"
   height="331mm"
   viewBox="0 0 165 331"
   version="1.1"
   xmlns="http://www.w3.org/2000/svg">
  <!-- Arms outline (biceps, triceps - both left and right) -->
  <g>
    <!-- Left arm -->
    <path
       d="M 40 65 C 35 70 32 80 30 95 C 28 110 27 130 28 145 C 29 160 31 172 35 180 C 38 186 42 190 47 192 C 50 190 52 185 53 178 C 54 165 53 145 52 125 C 51 105 48 85 45 75 L 40 65 Z"
       fill="none"
       stroke="#000000"
       stroke-width="2.5"
       stroke-opacity="1"
       opacity="0.85" />
    <!-- Right arm -->
    <path
       d="M 125 65 C 130 70 133 80 135 95 C 137 110 138 130 137 145 C 136 160 134 172 130 180 C 127 186 123 190 118 192 C 115 190 113 185 112 178 C 111 165 112 145 113 125 C 114 105 117 85 120 75 L 125 65 Z"
       fill="none"
       stroke="#000000"
       stroke-width="2.5"
       stroke-opacity="1"
       opacity="0.85" />
  </g>
</svg>
