<?xml version="1.0" encoding="UTF-8" standalone="no"?>
<svg
   width="185mm"
   height="335mm"
   viewBox="0 0 185 335"
   version="1.1"
   xmlns="http://www.w3.org/2000/svg">
  <defs id="defs1" />
  <g id="layer1">
    <!-- Left Deltoid -->
    <path
       style="fill:#ff0000;fill-opacity:0.5;stroke:#000000;stroke-width:0.5;stroke-opacity:1"
       d="M 52,78 C 56,73 62,70 68,70 C 74,70 80,72 84,76 C 86,78 87,82 86,86 C 84,90 80,92 76,93 C 70,94 63,93 58,90 C 54,88 51,83 52,78 Z"
       id="left-deltoid" />
    
    <!-- Right Deltoid -->
    <path
       style="fill:#ff0000;fill-opacity:0.5;stroke:#000000;stroke-width:0.5;stroke-opacity:1"
       d="M 133,78 C 129,73 123,70 117,70 C 111,70 105,72 101,76 C 99,78 98,82 99,86 C 101,90 105,92 109,93 C 115,94 122,93 127,90 C 131,88 134,83 133,78 Z"
       id="right-deltoid" />
  </g>
</svg>
